<?xml version="1.0" encoding="UTF-8"?>
<!--
  The Branded Hide (Chapter 1)
  A stretched cattle hide pulled off one of the dead animals from the burial pit.
  An angular symbol has been burned into the leather with a heavy iron - not a
  ranch brand (which would be small, in a known location, and a registered
  ownership mark). This is large, central, and burned hot enough to cup the
  leather and char the underside.
  The symbol is a fragment of the opening diagram - specifically the OUTER
  RING and three of the radial spokes. The diagram is incomplete on the hide;
  Don Eusebio used different segments on different cattle, distributing the
  geometry across the herd so no single hide would carry the full shape.
  Print at A3 portrait. Smell of singed hair on the player's mind.
-->
<svg xmlns="http://www.w3.org/2000/svg"
     viewBox="0 0 700 800"
     width="700" height="800"
     font-family="Georgia, 'Times New Roman', serif">

  <defs>
    <radialGradient id="hide" cx="50%" cy="48%" r="62%">
      <stop offset="0%"   stop-color="#c9a378"/>
      <stop offset="35%"  stop-color="#a87f54"/>
      <stop offset="75%"  stop-color="#7a5634"/>
      <stop offset="100%" stop-color="#4d361f"/>
    </radialGradient>
    <radialGradient id="brandChar" cx="50%" cy="50%" r="50%">
      <stop offset="0%"   stop-color="#1a0d05"/>
      <stop offset="60%"  stop-color="#2c170a"/>
      <stop offset="100%" stop-color="#3a2110" stop-opacity="0"/>
    </radialGradient>
    <filter id="leather" x="0" y="0" width="100%" height="100%">
      <feTurbulence type="fractalNoise" baseFrequency="0.9" numOctaves="3" seed="7"/>
      <feColorMatrix values="0 0 0 0 0  0 0 0 0 0  0 0 0 0 0  0 0 0 0.22 0"/>
      <feComposite in2="SourceGraphic" operator="in"/>
    </filter>
    <filter id="brandBlur" x="-20%" y="-20%" width="140%" height="140%">
      <feGaussianBlur stdDeviation="1.6"/>
    </filter>
  </defs>

  <rect width="100%" height="100%" fill="#0e0a06"/>

  <!-- the stretched hide silhouette: irregular pentagon-ish, widened at the shoulders,
       narrower at the rump, with four leg-stubs splayed where the hide was tacked
       to a drying frame -->
  <g transform="translate(350,400)">
    <!-- hide shape -->
    <path d="
      M -40,-310
      C -120,-300 -210,-260 -240,-200
      L -290,-180   /* foreleg tack */
      L -255,-150
      C -280,-90 -290,-10 -270, 70
      L -310, 110   /* hindleg tack */
      L -260, 130
      C -230, 200 -160, 260 -60, 280
      C  60, 290  170, 250 220, 180
      L  280, 200   /* hindleg tack */
      L  240, 150
      C  290,  60  290,-30  255,-110
      L  300,-150   /* foreleg tack */
      L  240,-180
      C  200,-250  130,-290  60,-305
      C  20,-310  -10,-313  -40,-310 Z"
      fill="url(#hide)" stroke="#2c1d10" stroke-width="3"/>

    <!-- leather grain -->
    <path d="
      M -40,-310
      C -120,-300 -210,-260 -240,-200
      L -290,-180
      L -255,-150
      C -280,-90 -290,-10 -270, 70
      L -310, 110
      L -260, 130
      C -230, 200 -160, 260 -60, 280
      C  60, 290  170, 250 220, 180
      L  280, 200
      L  240, 150
      C  290,  60  290,-30  255,-110
      L  300,-150
      L  240,-180
      C  200,-250  130,-290  60,-305
      C  20,-310  -10,-313  -40,-310 Z"
      fill="black" filter="url(#leather)" opacity="0.55"/>

    <!-- tack-holes at the four corners -->
    <g fill="#0f0a06">
      <circle cx="-290" cy="-178" r="3.2"/>
      <circle cx="-310" cy="108"  r="3.2"/>
      <circle cx=" 280" cy="198"  r="3.2"/>
      <circle cx=" 300" cy="-148" r="3.2"/>
    </g>

    <!-- hair-grain striations radiating from spine -->
    <g stroke="#5d3f24" stroke-width="0.6" opacity="0.45" fill="none">
      <path d="M -10,-280 q -90,40 -160,80"/>
      <path d="M -10,-200 q -120,30 -190,60"/>
      <path d="M -10,-110 q -130,15 -200,40"/>
      <path d="M -10,  0  q -130,0  -200,10"/>
      <path d="M -10, 90  q -130,0  -180,-10"/>
      <path d="M -10, 180 q -110,0  -150,-30"/>
      <path d="M  10,-280 q  90,40  160,80"/>
      <path d="M  10,-200 q 120,30  190,60"/>
      <path d="M  10,-110 q 130,15  200,40"/>
      <path d="M  10,  0  q 130,0   200,10"/>
      <path d="M  10, 90  q 130,0   180,-10"/>
      <path d="M  10, 180 q 110,0   150,-30"/>
    </g>

    <!-- THE BRAND: an iron seared into the leather. The metal cupped the hide;
         char ring around each line; the leather is slightly raised at the edges. -->
    <!-- charred halo behind the brand -->
    <g opacity="0.7" filter="url(#brandBlur)">
      <circle cx="0" cy="-30" r="155" fill="url(#brandChar)"/>
    </g>

    <!-- the brand strokes themselves: thick, black, slightly cupped -->
    <g stroke="#0a0503" stroke-width="9" fill="none" stroke-linecap="round" stroke-linejoin="round">

      <!-- outer ring of the opening diagram, BUT WITH A CUT.
           The southern arc is missing entirely - this hide carries only
           the upper 240 degrees of the ring. -->
      <path d="
        M -120,-30
        A 130,130 0 1 1 95, 80
      "/>

      <!-- three radial spokes from the ring inward.
           They terminate before reaching the center - the diagram's center
           is conspicuously absent on this hide. -->
      <line x1="-120" y1="-30" x2="-30" y2="-30"/>
      <line x1="0"    y1="-160" x2="0"  y2="-65"/>
      <line x1="95"   y1="80"   x2="22" y2="20"/>

      <!-- a fourth spoke that begins inside the ring and reaches OUT past it
           to the south-east - this is the line that connects to the next hide
           in the herd. The continuation hint. -->
      <line x1="22" y1="20" x2="155" y2="120"/>
      <!-- arrow-mark suggesting "continues elsewhere" -->
      <path d="M 155,120 l -16,2 l 6,12"/>

      <!-- a small angular sigil at the center where the diagram does NOT close -
           a defensive mark, perhaps Don Eusebio's compromise with himself, or
           perhaps imposed by the geometry. Three dashes at right angles. -->
      <line x1="-8"  y1="-12" x2="8"  y2="-12"/>
      <line x1="-12" y1="-8"  x2="-12" y2="8"/>
      <line x1="12"  y1="-8"  x2="12"  y2="8"/>
    </g>

    <!-- thin lighter stroke inside the brand: the inner edge where the iron's
         heat tapered, leather still scorched but not fully charred -->
    <g stroke="#5a2a10" stroke-width="2" fill="none" stroke-linecap="round" opacity="0.7">
      <path d="M -120,-30 A 130,130 0 1 1 95,80"/>
      <line x1="-120" y1="-30" x2="-30" y2="-30"/>
      <line x1="0"    y1="-160" x2="0"  y2="-65"/>
      <line x1="95"   y1="80"   x2="22" y2="20"/>
      <line x1="22" y1="20" x2="155" y2="120"/>
    </g>

    <!-- a faint splatter of dried blood at the brand's southern void,
         where the missing arc would be -->
    <g fill="#3d0b08" opacity="0.7">
      <ellipse cx="-30" cy="115" rx="22" ry="6"/>
      <ellipse cx="10"  cy="125" rx="14" ry="4"/>
      <ellipse cx="40"  cy="118" rx="8"  ry="3"/>
      <ellipse cx="-55" cy="105" rx="6"  ry="2.5"/>
    </g>

    <!-- a small ranch-tally mark in the upper-left corner: legitimate ownership
         brand, unrelated to the geometry. This is what a brand on a hide is
         SUPPOSED to look like. The contrast is the chapter's silent argument. -->
    <g stroke="#0a0503" stroke-width="3" fill="none" stroke-linecap="round">
      <path d="M -200,-200 l 14,0 l 0,18 l -14,0 z"/>
      <line x1="-193" y1="-200" x2="-193" y2="-182"/>
      <line x1="-200" y1="-191" x2="-186" y2="-191"/>
    </g>
    <text x="-180" y="-180" fill="#3d2715" font-size="9" font-style="italic">EV - 1820</text>
  </g>

  <!-- caption -->
  <text x="350" y="755" text-anchor="middle" fill="#a89272" font-size="13" letter-spacing="2">
    THE BRANDED HIDE  -  fragment of the opening diagram
  </text>
  <text x="350" y="775" text-anchor="middle" fill="#6c5c45" font-size="11" font-style="italic">
    one of seventy-three hides; the southern arc is on a different animal
  </text>
</svg>
