<?xml version="1.0" encoding="UTF-8"?>
<!--
  Tomas's Vizcachera Stone (Chapter 1)
  A flat river rock, palm-sized, scratched on both sides with iron.
  Obverse: a fragment of the opening diagram, copied from what Tomas saw on the
           branded cattle hide. Angular, partial, jagged. He does not understand
           what he copied.
  Reverse: the counter-binding shape, copied from memory after he saw it scratched
           on the inside of an old doorframe in San Ruiz. He says looking at it
           "gave him peace." He does not know it is opposed to the obverse.
  Print at A4 landscape. The two faces side by side carry the chapter's central
  silent argument: one stone, one hand, two opposed shapes.
-->
<svg xmlns="http://www.w3.org/2000/svg"
     viewBox="0 0 900 500"
     width="900" height="500"
     font-family="Georgia, 'Times New Roman', serif">

  <defs>
    <radialGradient id="stoneFace" cx="50%" cy="45%" r="60%">
      <stop offset="0%"  stop-color="#7a6a55"/>
      <stop offset="55%" stop-color="#4d4135"/>
      <stop offset="100%" stop-color="#2a2419"/>
    </radialGradient>
    <radialGradient id="stoneFaceB" cx="50%" cy="55%" r="60%">
      <stop offset="0%"  stop-color="#75644f"/>
      <stop offset="55%" stop-color="#483d31"/>
      <stop offset="100%" stop-color="#251f15"/>
    </radialGradient>
    <filter id="grain" x="0" y="0" width="100%" height="100%">
      <feTurbulence type="fractalNoise" baseFrequency="1.6" numOctaves="2" seed="3"/>
      <feColorMatrix values="0 0 0 0 0  0 0 0 0 0  0 0 0 0 0  0 0 0 0.18 0"/>
      <feComposite in2="SourceGraphic" operator="in"/>
    </filter>
  </defs>

  <rect width="100%" height="100%" fill="#1a1610"/>

  <!-- ==================== OBVERSE ==================== -->
  <g transform="translate(225,250)">
    <!-- the rock itself: irregular oval with chips -->
    <path d="
        M -185,-110
        C -200,-60 -200,40 -170,95
        C -120,135 -50,140 30,130
        C 95,118 160,90 180,40
        C 195,-10 180,-75 130,-110
        C 70,-140 -10,-145 -90,-135
        C -150,-128 -180,-145 -185,-110 Z"
      fill="url(#stoneFace)" stroke="#241c12" stroke-width="3"/>
    <path d="
        M -185,-110
        C -200,-60 -200,40 -170,95
        C -120,135 -50,140 30,130
        C 95,118 160,90 180,40
        C 195,-10 180,-75 130,-110
        C 70,-140 -10,-145 -90,-135
        C -150,-128 -180,-145 -185,-110 Z"
      fill="black" filter="url(#grain)" opacity="0.6"/>

    <!-- chip marks at the rim -->
    <path d="M -90,-135 l 8,8 l -10,4 z" fill="#1a1410"/>
    <path d="M 165,-30 l 6,8 l -10,2 z" fill="#1a1410"/>
    <path d="M -180,40 l 10,4 l -6,8 z" fill="#1a1410"/>

    <!-- THE SCRATCHED OPENING FRAGMENT: a partial wagon-wheel with three of six spokes,
         the rim broken on the eastern side (where the symbol is meant to continue
         onto the rest of the diagram). Hand-scratched with iron. -->
    <g stroke="#d9c89c" stroke-width="2.6" fill="none" stroke-linecap="round" opacity="0.92">
      <!-- partial outer rim, broken on the right -->
      <path d="M 60,-78 A 92,92 0 0 0 -88,-32"/>
      <path d="M -88,-32 A 92,92 0 0 0 -55,68"/>
      <path d="M -55,68 A 92,92 0 0 0 50,82"/>
      <!-- inner ring, also incomplete -->
      <path d="M 30,-42 A 50,50 0 0 0 -45,-18"/>
      <path d="M -45,-18 A 50,50 0 0 0 -30,42"/>

      <!-- three radial spokes converging on a missing center -->
      <line x1="-88" y1="-32" x2="-15" y2="0"/>
      <line x1="-55" y1="68"  x2="-10" y2="14"/>
      <line x1="50"  y1="82"  x2="8"   y2="18"/>

      <!-- the missing center: a hatched void where the diagram does not resolve -->
      <line x1="-12" y1="-6" x2="6" y2="12"/>
      <line x1="-6"  y1="-12" x2="12" y2="6"/>
      <line x1="-14" y1="6"  x2="0" y2="20"/>

      <!-- the eastern break: a jagged, abandoned stub line -->
      <path d="M 60,-78 l 8,-3 l -2,8 l 7,-1" stroke-dasharray="0"/>
      <path d="M 50,82 l 10,4 l -2,8" />
    </g>

    <!-- iron-scratch micro-debris -->
    <g fill="#d9c89c" opacity="0.55">
      <circle cx="-30" cy="-50" r="0.9"/>
      <circle cx="-22" cy="-30" r="0.7"/>
      <circle cx="20"  cy="-20" r="0.8"/>
      <circle cx="40"  cy="20"  r="0.6"/>
      <circle cx="-50" cy="40"  r="0.9"/>
    </g>

    <!-- caption -->
    <text x="0" y="195" text-anchor="middle" fill="#bda981" font-size="14" letter-spacing="2">
      OBVERSE  -  The Opening Fragment
    </text>
    <text x="0" y="215" text-anchor="middle" fill="#7a6e55" font-size="11" font-style="italic">
      copied by Tomas from the branded hide
    </text>
  </g>

  <!-- ==================== REVERSE ==================== -->
  <g transform="translate(675,250)">
    <!-- the rock, mirrored profile -->
    <path d="
        M 185,-110
        C 200,-60 200,40 170,95
        C 120,135 50,140 -30,130
        C -95,118 -160,90 -180,40
        C -195,-10 -180,-75 -130,-110
        C -70,-140 10,-145 90,-135
        C 150,-128 180,-145 185,-110 Z"
      fill="url(#stoneFaceB)" stroke="#241c12" stroke-width="3"/>
    <path d="
        M 185,-110
        C 200,-60 200,40 170,95
        C 120,135 50,140 -30,130
        C -95,118 -160,90 -180,40
        C -195,-10 -180,-75 -130,-110
        C -70,-140 10,-145 90,-135
        C 150,-128 180,-145 185,-110 Z"
      fill="black" filter="url(#grain)" opacity="0.6"/>

    <!-- chip marks -->
    <path d="M 90,-135 l -8,8 l 10,4 z" fill="#1a1410"/>
    <path d="M -165,-30 l -6,8 l 10,2 z" fill="#1a1410"/>
    <path d="M 180,40 l -10,4 l 6,8 z" fill="#1a1410"/>

    <!-- THE COUNTER-BINDING: four lines, not quite a cross.
         Same shape as Rosa's silver throat ornament (binding-symbol.svg) and
         the inside-doorframe scratchings of San Ruiz. Drawn from memory by
         Tomas, less precise than Rosa's: the lines are slightly off-90,
         the central lens is irregular, the barbs are cruder. -->
    <g stroke="#e4d3a4" stroke-width="3.2" fill="none" stroke-linecap="round" opacity="0.94">

      <!-- four lines, off-axis (memory error): vertical pair tilted 4deg,
           horizontal pair tilted 2deg the other way -->
      <g transform="rotate(-4)">
        <line x1="0" y1="-95" x2="0" y2="-22"/>
        <line x1="0" y1="22"  x2="0" y2="95"/>
      </g>
      <g transform="rotate(2)">
        <line x1="-95" y1="0" x2="-22" y2="0"/>
        <line x1="22"  y1="0" x2="95"  y2="0"/>
      </g>

      <!-- barbs at the four line ends (Mapuche-influenced detail Rosa has,
           Tomas reproduces less cleanly) -->
      <path d="M -3,-95 l -7,-9  M  3,-95 l 7,-9"/>
      <path d="M -3, 95 l -7, 9  M  3, 95 l 7, 9"/>
      <path d="M -95,-3 l -9,-7  M -95, 3 l -9, 7"/>
      <path d="M  95,-3 l  9,-7  M  95, 3 l  9, 7"/>

      <!-- central lens (Tomas drew it as an oval, not the precise vesica
           Rosa uses; the asymmetry is part of the artifact's character) -->
      <ellipse cx="0" cy="0" rx="20" ry="14"/>

      <!-- a tiny dot in the lens center: Rosa's ornament has it; Tomas added
           his own version, slightly off-center -->
      <circle cx="-2" cy="1" r="1.6" fill="#e4d3a4"/>
    </g>

    <!-- caption -->
    <text x="0" y="195" text-anchor="middle" fill="#bda981" font-size="14" letter-spacing="2">
      REVERSE  -  The Counter-binding
    </text>
    <text x="0" y="215" text-anchor="middle" fill="#7a6e55" font-size="11" font-style="italic">
      copied from a doorframe in San Ruiz, from memory
    </text>
  </g>

  <!-- bottom strap: a quotation -->
  <text x="450" y="475" text-anchor="middle" fill="#5b5240" font-size="12" font-style="italic">
    "Lo encontre cerca del pozo. Le rasque algo en el otro lado. Me dio paz mirarlo."
  </text>

  <!-- divider mark between the two faces, faint -->
  <line x1="450" y1="80" x2="450" y2="420" stroke="#3a3225" stroke-width="1" stroke-dasharray="2 6" opacity="0.6"/>

</svg>
